<svg viewBox="0 0 100 100" fill="none" xmlns="http://www.w3.org/2000/svg">
    <rect x="10" y="10" width="80" height="80" rx="10" fill="#EFF1f5"/>

    <text x="22" y="35" fill="#8D8F9F" font-size="7" font-family="Hack Nerd Font Mono">1</text>
    <rect x="32" y="30" width="4" height="5" fill="#E0B0FF"/> <!-- fn -->
    <rect x="38" y="30" width="8" height="5" fill="#B9CBFF"/> <!-- main -->
    <rect x="46" y="30" width="4" height="5" fill="#CCCCFF"/> <!-- () -->
    <rect x="52" y="30" width="2" height="5" fill="#CCCCFF"/> <!-- { -->

    <text x="22" y="42" fill="#8D8F9F" font-size="7" font-family="Hack Nerd Font Mono">2</text>
    <rect x="38" y="37" width="6" height="5" fill="#E0B0FF"/> <!-- let -->
    <rect x="46" y="37" width="2" height="5" fill="#AEFFDF"/> <!-- x -->
    <rect x="50" y="37" width="2" height="5" fill="#CCCCFF"/> <!-- = -->
    <rect x="54" y="37" width="4" height="5" fill="#FFC300"/> <!-- 11 -->
    <rect x="58" y="37" width="2" height="5" fill="#CCCCFF"/> <!-- ; -->

    <text x="22" y="49" fill="#8D8F9F" font-size="7" font-family="Hack Nerd Font Mono">3</text>
    <rect x="38" y="44" width="4" height="5" fill="#E0B0FF"/> <!-- if -->
    <rect x="44" y="44" width="2" height="5" fill="#FFC300"/> <!-- 1 -->
    <rect x="48" y="44" width="4" height="5" fill="#CCCCFF"/> <!-- == -->
    <rect x="54" y="44" width="2" height="5" fill="#AEFFDF"/> <!-- x -->
    <rect x="58" y="44" width="2" height="5" fill="#CCCCFF"/> <!-- { -->

    <text x="22" y="56" fill="#8D8F9F" font-size="7" font-family="Hack Nerd Font Mono">4</text>
    <rect x="46" y="51" width="12" height="5" fill="#B9CBFF"/> <!-- print! -->
    <rect x="58" y="51" width="2" height="5" fill="#CCCCFF"/> <!-- ( -->
    <rect x="60" y="51" width="2" height="5" fill="#CEEC93"/> <!-- " -->
    <rect x="62" y="51" width="2" height="5" fill="#E0B0FF"/> <!-- { -->
    <rect x="64" y="51" width="2" height="5" fill="#AEFFDF"/> <!-- x -->
    <rect x="66" y="51" width="2" height="5" fill="#E0B0FF"/> <!-- } -->
    <rect x="68" y="51" width="2" height="5" fill="#CEEC93"/> <!-- " -->
    <rect x="70" y="51" width="2" height="5" fill="#CCCCFF"/> <!-- ) -->
    <rect x="72" y="51" width="2" height="5" fill="#CCCCFF"/> <!-- ; -->

    <text x="22" y="63" fill="#8D8F9F" font-size="7" font-family="Hack Nerd Font Mono">5</text>
    <rect x="38" y="58" width="2" height="5" fill="#CCCCFF"/> <!-- } -->

    <text x="22" y="70" fill="#8D8F9F" font-size="7" font-family="Hack Nerd Font Mono">6</text>
    <rect x="32" y="65" width="2" height="5" fill="#CCCCFF"/> <!-- } -->
    <rect x="36" y="65" width="4" height="5" fill="#CCCCFF" opacity="0.4"/> <!-- // -->
    <rect x="42" y="65" width="12" height="5" fill="#CCCCFF" opacity="0.4"/> <!-- sample -->

    <path d="M75 35.9336C82.3129 33 86.4917 44.7342 79.1788 42.7788C76.0022 41.9295 76.0447 37.8894 75 33" stroke="#B57EDC" stroke-width="2"/>
    <path d="M75 35.9336C67.6871 33 63.5083 44.7342 70.8212 42.7788C73.9978 41.9295 73.9553 37.8894 75 33" stroke="#B57EDC" stroke-width="2"/>
    <mask id="mask0_1_44" style="mask-type:alpha" maskUnits="userSpaceOnUse" x="75" y="14" width="8" height="20">
    <path d="M78.0343 16.6314L78.4028 14.6657L82.3343 15.4028L81.9657 17.3686L78.0343 16.6314ZM75.0343 32.6314L78.0343 16.6314L81.9657 17.3686L78.9657 33.3686L75.0343 32.6314Z" fill="white"/>
    </mask>
    <g mask="url(#mask0_1_44)">
    <path d="M76.0343 16.6314C76.2378 15.5458 77.2829 14.8307 78.3686 15.0343C79.4542 15.2378 80.1693 16.2829 79.9657 17.3686L76.0343 16.6314ZM73.0343 32.6314L76.0343 16.6314L79.9657 17.3686L76.9657 33.3686L73.0343 32.6314Z" fill="#C3C8D0"/>
    </g>
    <mask id="mask1_1_44" style="mask-type:alpha" maskUnits="userSpaceOnUse" x="67" y="14" width="8" height="20">
    <path d="M71.9657 16.6314L71.5972 14.6657L67.6657 15.4028L68.0343 17.3686L71.9657 16.6314ZM74.9657 32.6314L71.9657 16.6314L68.0343 17.3686L71.0343 33.3686L74.9657 32.6314Z" fill="white"/>
    </mask>
    <g mask="url(#mask1_1_44)">
    <path d="M73.9657 16.6314C73.7622 15.5458 72.7171 14.8307 71.6314 15.0343C70.5458 15.2378 69.8307 16.2829 70.0343 17.3686L73.9657 16.6314ZM76.9657 32.6314L73.9657 16.6314L70.0343 17.3686L73.0343 33.3686L76.9657 32.6314Z" fill="#C3C8D0"/>
    </g>
    <circle cx="75" cy="33" r="2.5" fill="#606060"/>
</svg>
